<svg width="100" height="100" viewBox="0 0 100 100" fill="none" xmlns="http://www.w3.org/2000/svg">
<circle cx="50" cy="50" r="50" fill="white"/>
<path d="M69.3298 62.0682L69.3288 62.0672C69.2276 61.9565 69.1155 61.837 68.9943 61.7079C68.097 60.7516 66.7046 59.2675 65.567 56.9239C64.2699 54.2516 63.3494 50.6028 63.3494 45.3125C63.3494 38.9422 58.9831 33.8596 53.0525 32.6061L51.0695 32.187V30.1602V28.125C51.0695 27.7376 50.7722 27.5 50.5 27.5C50.2278 27.5 49.9305 27.7376 49.9305 28.125V30.1602V32.187L47.9475 32.6061C42.0169 33.8596 37.6506 38.9422 37.6506 45.3125C37.6506 50.6028 36.7301 54.2516 35.433 56.9239C34.2954 59.2675 32.903 60.7516 32.0057 61.7079C31.8847 61.8369 31.7727 61.9562 31.6715 62.0668C31.5972 62.1482 31.5577 62.2206 31.5352 62.2806C31.5119 62.3424 31.4996 62.4099 31.5 62.4835L69.3298 62.0682ZM69.3298 62.0682C69.403 62.1482 69.4421 62.2199 69.4647 62.2799C69.4881 62.342 69.5005 62.4099 69.5 62.4837L69.5 62.485M69.3298 62.0682L69.5 62.485M69.5 62.485C69.4989 62.659 69.4265 62.8387 69.3122 62.9618C69.2191 63.062 69.1035 63.125 68.9189 63.125H32.0811C31.8967 63.125 31.7814 63.0622 31.6883 62.962M69.5 62.485L31.6883 62.962M31.6883 62.962C31.5741 62.839 31.5012 62.6588 31.5 62.4837L31.6883 62.962ZM53.2133 71.25C52.5398 72.0224 51.5631 72.5 50.5 72.5C49.4369 72.5 48.4602 72.0224 47.7867 71.25H53.2133Z" fill="white" stroke="black" stroke-width="5"/>
</svg>
