<svg width="100" height="100" viewBox="0 0 100 100" fill="none" xmlns="http://www.w3.org/2000/svg">
<circle cx="50" cy="50" r="50" fill="#6D099D"/>
<path d="M59.2505 49.7374C57.8517 49.7798 56.5126 49.0567 55.7637 47.8574L50.1678 38.9811L45.1279 48.1797C44.4451 49.4309 43.1521 50.2338 41.7533 50.2762C41.3809 50.2874 41.0069 50.2479 40.6476 50.1484L29.2075 47.1687L29.6648 62.2596C29.7026 63.5058 30.5632 64.5659 31.7475 64.8271L49.7812 68.8714C50.6319 69.0577 51.5175 69.0309 52.3471 68.7936L70.1194 63.6642C71.2854 63.3234 72.0802 62.2131 72.0427 60.9753L71.5854 45.8844L60.3465 49.543C59.9939 49.664 59.623 49.7261 59.2505 49.7374ZM76.559 39.6918L72.0323 31.1056C71.7597 30.5877 71.1959 30.2993 70.6271 30.3929L50.0085 33.7247L57.9892 46.3898C58.3199 46.9144 58.9567 47.1497 59.5392 46.9623L75.7741 41.6758C76.5861 41.4051 76.9551 40.4605 76.559 39.6918ZM27.8666 32.444L23.8681 41.2886C23.511 42.0801 23.9448 43.0004 24.7631 43.2132L41.2883 47.5069C41.8811 47.6587 42.5025 47.3852 42.8008 46.8416L50.0085 33.7247L29.2177 31.6478C28.6445 31.5973 28.1072 31.9106 27.8666 32.444Z" fill="white"/>
</svg>
