<svg width="297" height="74" viewBox="0 0 297 74" fill="none" xmlns="http://www.w3.org/2000/svg">
<rect width="297" height="74" rx="26" fill="#E4E4E4"/>
<path d="M45.0118 31.7883C45.1696 32.4717 44.4198 32.9911 43.8366 32.6265L41.8475 31.3836L39.3638 35.3583C38.7151 36.3962 39.4648 37.75 40.6881 37.75H43.2265C43.5501 37.75 43.8125 38.0124 43.8125 38.336V40.2891C43.8125 40.6127 43.5501 40.875 43.2265 40.875H40.6931C37.0147 40.875 34.7702 36.8199 36.7181 33.7032L39.1996 29.7291L37.2111 28.4865C36.6212 28.118 36.7733 27.2189 37.4493 27.0628L42.832 25.8201C43.2525 25.7231 43.6719 25.9852 43.769 26.4056L45.0118 31.7883ZM49.8243 22.8569L51.8404 26.0832L49.8511 27.3262C49.2627 27.6938 49.4117 28.5935 50.0893 28.75L55.472 29.9927C55.8954 30.0903 56.3126 29.8248 56.409 29.4072L57.6516 24.0245C57.8077 23.3486 57.0662 22.8176 56.4764 23.1863L54.4898 24.4277L52.475 21.201C50.6429 18.2697 46.3613 18.263 44.525 21.201L43.6479 22.6056C43.4765 22.88 43.56 23.2414 43.8344 23.4129L45.4906 24.4478C45.765 24.6193 46.1265 24.5358 46.298 24.2614L47.175 22.8579C47.7957 21.8647 49.2245 21.8972 49.8243 22.8569ZM60.2816 33.7032L58.9381 31.5515C58.7667 31.277 58.4051 31.1934 58.1306 31.365L56.4772 32.3981C56.2028 32.5696 56.1193 32.9311 56.2908 33.2055L57.6367 35.3594C58.284 36.3951 57.5363 37.7501 56.3117 37.7501H51.625V35.4073C51.625 34.7133 50.7831 34.3632 50.2913 34.8549L46.3851 38.7602C46.08 39.0653 46.08 39.5599 46.3851 39.865L50.2913 43.7707C50.7797 44.2592 51.625 43.917 51.625 43.2182V40.875H56.3066C59.9821 40.875 62.2312 36.8224 60.2816 33.7032Z" fill="#6DE86A"/>
<path d="M80.3011 44V27.6364H82.8153V44H80.3011ZM81.5795 24.9091C81.0895 24.9091 80.6669 24.7422 80.3118 24.4084C79.9638 24.0746 79.7898 23.6733 79.7898 23.2045C79.7898 22.7358 79.9638 22.3345 80.3118 22.0007C80.6669 21.6669 81.0895 21.5 81.5795 21.5C82.0696 21.5 82.4886 21.6669 82.8366 22.0007C83.1918 22.3345 83.3693 22.7358 83.3693 23.2045C83.3693 23.6733 83.1918 24.0746 82.8366 24.4084C82.4886 24.7422 82.0696 24.9091 81.5795 24.9091ZM89.9345 34.1562V44H87.4203V27.6364H89.8493V30.1932H90.0623C90.4458 29.3622 91.0282 28.6946 91.8095 28.1903C92.5907 27.679 93.5993 27.4233 94.8351 27.4233C95.943 27.4233 96.9125 27.6506 97.7434 28.1051C98.5744 28.5526 99.2207 29.2344 99.6824 30.1506C100.144 31.0597 100.375 32.2102 100.375 33.6023V44H97.8606V33.7727C97.8606 32.4872 97.5268 31.4858 96.8592 30.7685C96.1916 30.044 95.2754 29.6818 94.1106 29.6818C93.3081 29.6818 92.5907 29.8558 91.9586 30.2038C91.3336 30.5518 90.84 31.0597 90.4778 31.7273C90.1156 32.3949 89.9345 33.2045 89.9345 34.1562ZM114.344 33.4744V35.8182H104.799V33.4744H114.344ZM119.109 44V22.1818H126.481C128.193 22.1818 129.592 22.4908 130.678 23.1087C131.772 23.7195 132.582 24.5469 133.107 25.5909C133.633 26.6349 133.896 27.7997 133.896 29.0852C133.896 30.3707 133.633 31.5391 133.107 32.5902C132.589 33.6413 131.786 34.4794 130.7 35.1044C129.613 35.7223 128.221 36.0312 126.524 36.0312H121.24V33.6875H126.438C127.61 33.6875 128.551 33.4851 129.262 33.0803C129.972 32.6754 130.487 32.1286 130.806 31.4396C131.133 30.7436 131.296 29.9588 131.296 29.0852C131.296 28.2116 131.133 27.4304 130.806 26.7415C130.487 26.0526 129.968 25.5128 129.251 25.1222C128.534 24.7244 127.582 24.5256 126.396 24.5256H121.751V44H119.109ZM137.811 44V27.6364H140.24V30.108H140.41C140.709 29.2983 141.248 28.6413 142.03 28.1371C142.811 27.6328 143.692 27.3807 144.672 27.3807C144.856 27.3807 145.087 27.3842 145.364 27.3913C145.641 27.3984 145.851 27.4091 145.993 27.4233V29.9801C145.907 29.9588 145.712 29.9268 145.407 29.8842C145.108 29.8345 144.792 29.8097 144.459 29.8097C143.663 29.8097 142.953 29.9766 142.328 30.3104C141.71 30.6371 141.22 31.0916 140.858 31.674C140.503 32.2493 140.325 32.9062 140.325 33.6449V44H137.811ZM155.123 44.3409C153.645 44.3409 152.349 43.9893 151.234 43.2862C150.126 42.5831 149.26 41.5994 148.635 40.3352C148.017 39.071 147.708 37.5937 147.708 35.9034C147.708 34.1989 148.017 32.7109 148.635 31.4396C149.26 30.1683 150.126 29.1811 151.234 28.478C152.349 27.7749 153.645 27.4233 155.123 27.4233C156.6 27.4233 157.893 27.7749 159.001 28.478C160.116 29.1811 160.982 30.1683 161.6 31.4396C162.225 32.7109 162.537 34.1989 162.537 35.9034C162.537 37.5937 162.225 39.071 161.6 40.3352C160.982 41.5994 160.116 42.5831 159.001 43.2862C157.893 43.9893 156.6 44.3409 155.123 44.3409ZM155.123 42.0824C156.245 42.0824 157.168 41.7947 157.893 41.2195C158.617 40.6442 159.153 39.8878 159.501 38.9503C159.849 38.0128 160.023 36.9972 160.023 35.9034C160.023 34.8097 159.849 33.7905 159.501 32.8459C159.153 31.9013 158.617 31.1378 157.893 30.5554C157.168 29.973 156.245 29.6818 155.123 29.6818C154.001 29.6818 153.077 29.973 152.353 30.5554C151.628 31.1378 151.092 31.9013 150.744 32.8459C150.396 33.7905 150.222 34.8097 150.222 35.9034C150.222 36.9972 150.396 38.0128 150.744 38.9503C151.092 39.8878 151.628 40.6442 152.353 41.2195C153.077 41.7947 154.001 42.0824 155.123 42.0824ZM172.98 50.4773C171.766 50.4773 170.722 50.321 169.848 50.0085C168.975 49.7031 168.247 49.2983 167.664 48.794C167.089 48.2969 166.631 47.7642 166.29 47.196L168.293 45.7898C168.52 46.0881 168.808 46.429 169.156 46.8125C169.504 47.2031 169.98 47.5405 170.583 47.8246C171.194 48.1158 171.993 48.2614 172.98 48.2614C174.301 48.2614 175.392 47.9418 176.251 47.3026C177.11 46.6634 177.54 45.6619 177.54 44.2983V40.9744H177.327C177.142 41.2727 176.88 41.642 176.539 42.0824C176.205 42.5156 175.722 42.9027 175.09 43.2436C174.465 43.5774 173.62 43.7443 172.554 43.7443C171.233 43.7443 170.047 43.4318 168.996 42.8068C167.952 42.1818 167.125 41.2727 166.514 40.0795C165.91 38.8864 165.608 37.4375 165.608 35.733C165.608 34.0568 165.903 32.5973 166.493 31.3544C167.082 30.1044 167.902 29.1385 168.953 28.4567C170.005 27.7678 171.219 27.4233 172.597 27.4233C173.662 27.4233 174.507 27.6009 175.132 27.956C175.765 28.304 176.248 28.7017 176.581 29.1491C176.922 29.5895 177.185 29.9517 177.37 30.2358H177.625V27.6364H180.054V44.4688C180.054 45.875 179.735 47.0185 179.096 47.8991C178.463 48.7869 177.611 49.4368 176.539 49.8487C175.473 50.2678 174.287 50.4773 172.98 50.4773ZM172.895 41.4858C173.904 41.4858 174.756 41.255 175.452 40.7933C176.148 40.3317 176.677 39.6676 177.039 38.8011C177.402 37.9347 177.583 36.8977 177.583 35.6903C177.583 34.5114 177.405 33.4709 177.05 32.5689C176.695 31.6669 176.169 30.9602 175.473 30.4489C174.777 29.9375 173.918 29.6818 172.895 29.6818C171.83 29.6818 170.942 29.9517 170.232 30.4915C169.529 31.0312 169 31.7557 168.645 32.6648C168.297 33.5739 168.123 34.5824 168.123 35.6903C168.123 36.8267 168.3 37.8317 168.655 38.7053C169.017 39.5717 169.55 40.2536 170.253 40.7507C170.963 41.2408 171.844 41.4858 172.895 41.4858ZM184.657 44V27.6364H187.086V30.108H187.256C187.554 29.2983 188.094 28.6413 188.875 28.1371C189.657 27.6328 190.537 27.3807 191.517 27.3807C191.702 27.3807 191.933 27.3842 192.21 27.3913C192.487 27.3984 192.696 27.4091 192.838 27.4233V29.9801C192.753 29.9588 192.558 29.9268 192.252 29.8842C191.954 29.8345 191.638 29.8097 191.304 29.8097C190.509 29.8097 189.799 29.9766 189.174 30.3104C188.556 30.6371 188.066 31.0916 187.703 31.674C187.348 32.2493 187.171 32.9062 187.171 33.6449V44H184.657ZM202.181 44.3409C200.605 44.3409 199.245 43.9929 198.101 43.2969C196.965 42.5938 196.088 41.6136 195.47 40.3565C194.859 39.0923 194.554 37.6222 194.554 35.946C194.554 34.2699 194.859 32.7926 195.47 31.5142C196.088 30.2287 196.947 29.2273 198.048 28.5099C199.156 27.7855 200.449 27.4233 201.926 27.4233C202.778 27.4233 203.62 27.5653 204.451 27.8494C205.282 28.1335 206.038 28.5952 206.72 29.2344C207.402 29.8665 207.945 30.7045 208.35 31.7486C208.755 32.7926 208.957 34.0781 208.957 35.6051V36.6705H196.343V34.4972H206.4C206.4 33.5739 206.216 32.75 205.846 32.0256C205.484 31.3011 204.966 30.7294 204.291 30.3104C203.623 29.8913 202.835 29.6818 201.926 29.6818C200.924 29.6818 200.058 29.9304 199.326 30.4276C198.602 30.9176 198.044 31.5568 197.654 32.3452C197.263 33.1335 197.068 33.9787 197.068 34.8807V36.3295C197.068 37.5653 197.281 38.6129 197.707 39.4723C198.14 40.3246 198.74 40.9744 199.507 41.4219C200.275 41.8622 201.166 42.0824 202.181 42.0824C202.842 42.0824 203.439 41.9901 203.971 41.8054C204.511 41.6136 204.976 41.3295 205.367 40.9531C205.757 40.5696 206.059 40.0937 206.272 39.5256L208.701 40.2074C208.446 41.0312 208.016 41.7557 207.412 42.3807C206.809 42.9986 206.063 43.4815 205.175 43.8295C204.287 44.1705 203.289 44.3409 202.181 44.3409ZM224.373 31.3011L222.114 31.9403C221.972 31.5639 221.762 31.1982 221.485 30.843C221.216 30.4808 220.846 30.1825 220.377 29.9482C219.909 29.7138 219.309 29.5966 218.577 29.5966C217.576 29.5966 216.741 29.8274 216.074 30.2891C215.413 30.7436 215.083 31.3224 215.083 32.0256C215.083 32.6506 215.31 33.1442 215.765 33.5064C216.219 33.8686 216.929 34.1705 217.895 34.4119L220.324 35.0085C221.787 35.3636 222.877 35.907 223.595 36.6385C224.312 37.3629 224.671 38.2969 224.671 39.4403C224.671 40.3778 224.401 41.2159 223.861 41.9545C223.328 42.6932 222.583 43.2756 221.624 43.7017C220.665 44.1278 219.55 44.3409 218.279 44.3409C216.61 44.3409 215.228 43.9787 214.135 43.2543C213.041 42.5298 212.348 41.4716 212.057 40.0795L214.444 39.483C214.671 40.3636 215.1 41.0241 215.733 41.4645C216.372 41.9048 217.206 42.125 218.236 42.125C219.408 42.125 220.338 41.8764 221.027 41.3793C221.723 40.875 222.071 40.2713 222.071 39.5682C222.071 39 221.873 38.5241 221.475 38.1406C221.077 37.75 220.466 37.4588 219.642 37.267L216.915 36.6278C215.417 36.2727 214.316 35.7223 213.613 34.9766C212.917 34.2237 212.569 33.2827 212.569 32.1534C212.569 31.2301 212.828 30.4134 213.346 29.7031C213.872 28.9929 214.586 28.4354 215.488 28.0305C216.397 27.6257 217.426 27.4233 218.577 27.4233C220.196 27.4233 221.468 27.7784 222.391 28.4886C223.321 29.1989 223.982 30.1364 224.373 31.3011ZM240.046 31.3011L237.788 31.9403C237.646 31.5639 237.436 31.1982 237.159 30.843C236.889 30.4808 236.52 30.1825 236.051 29.9482C235.583 29.7138 234.982 29.5966 234.251 29.5966C233.249 29.5966 232.415 29.8274 231.747 30.2891C231.087 30.7436 230.757 31.3224 230.757 32.0256C230.757 32.6506 230.984 33.1442 231.438 33.5064C231.893 33.8686 232.603 34.1705 233.569 34.4119L235.998 35.0085C237.461 35.3636 238.551 35.907 239.269 36.6385C239.986 37.3629 240.345 38.2969 240.345 39.4403C240.345 40.3778 240.075 41.2159 239.535 41.9545C239.002 42.6932 238.257 43.2756 237.298 43.7017C236.339 44.1278 235.224 44.3409 233.953 44.3409C232.284 44.3409 230.902 43.9787 229.808 43.2543C228.715 42.5298 228.022 41.4716 227.731 40.0795L230.117 39.483C230.345 40.3636 230.774 41.0241 231.406 41.4645C232.046 41.9048 232.88 42.125 233.91 42.125C235.082 42.125 236.012 41.8764 236.701 41.3793C237.397 40.875 237.745 40.2713 237.745 39.5682C237.745 39 237.546 38.5241 237.149 38.1406C236.751 37.75 236.14 37.4588 235.316 37.267L232.589 36.6278C231.09 36.2727 229.99 35.7223 229.286 34.9766C228.59 34.2237 228.242 33.2827 228.242 32.1534C228.242 31.2301 228.502 30.4134 229.02 29.7031C229.546 28.9929 230.259 28.4354 231.161 28.0305C232.07 27.6257 233.1 27.4233 234.251 27.4233C235.87 27.4233 237.142 27.7784 238.065 28.4886C238.995 29.1989 239.656 30.1364 240.046 31.3011Z" fill="#61E05F"/>
</svg>
