<svg width="96" height="18" viewBox="0 0 96 18" fill="none" xmlns="http://www.w3.org/2000/svg">
<path d="M1.56392 6.27273H4.17614L5.49716 11.6761H5.59943L8.71023 6.27273H11.3224L9.87358 15H7.8196L8.71023 9.6392H8.63778L5.66335 14.9446H4.35511L3.14489 9.60938H3.07244L2.16903 15H0.115057L1.56392 6.27273ZM14.2404 15.1236C13.5501 15.1236 12.9805 14.9815 12.5316 14.6974C12.0856 14.4134 11.7717 14.017 11.5898 13.5085C11.408 13 11.3725 12.4091 11.4833 11.7358C11.5941 11.0653 11.8228 10.4773 12.1694 9.97159C12.516 9.46591 12.9592 9.07244 13.4989 8.79119C14.0387 8.50994 14.6509 8.36932 15.3356 8.36932C16.0231 8.36932 16.5898 8.51136 17.0359 8.79545C17.4847 9.07955 17.8001 9.47585 17.9819 9.98438C18.1665 10.4929 18.2035 11.0852 18.0927 11.7614C17.9819 12.4318 17.7518 13.0199 17.4023 13.5256C17.0529 14.0284 16.6097 14.4205 16.0728 14.7017C15.5359 14.983 14.9251 15.1236 14.2404 15.1236ZM14.4748 13.5511C14.7305 13.5511 14.9592 13.4744 15.1609 13.321C15.3654 13.1676 15.5373 12.9531 15.6765 12.6776C15.8157 12.402 15.9151 12.0824 15.9748 11.7188C16.0344 11.3608 16.0401 11.0469 15.9918 10.777C15.9464 10.5043 15.8498 10.2926 15.7021 10.142C15.5543 9.98864 15.354 9.91193 15.1012 9.91193C14.8455 9.91193 14.6154 9.99006 14.4109 10.1463C14.2063 10.2997 14.0344 10.5142 13.8952 10.7898C13.7589 11.0625 13.6609 11.3821 13.6012 11.7486C13.5415 12.1065 13.5344 12.4205 13.5799 12.6903C13.6254 12.9602 13.7234 13.1719 13.8739 13.3253C14.0245 13.4759 14.2248 13.5511 14.4748 13.5511ZM25.8484 8.45455L22.5117 15H20.1254L18.9748 8.45455H21.0927L21.5529 12.9631H21.6211L23.5771 8.45455H25.8484ZM28.3881 15.1236C27.7035 15.1236 27.1353 14.9886 26.6836 14.7188C26.2347 14.446 25.9194 14.0582 25.7376 13.5554C25.5558 13.0497 25.5231 12.4489 25.6396 11.7528C25.7532 11.0767 25.9847 10.4858 26.3342 9.98011C26.6864 9.47159 27.1296 9.0767 27.6637 8.79545C28.1978 8.51136 28.793 8.36932 29.4492 8.36932C29.9151 8.36932 30.3285 8.44176 30.6893 8.58665C31.0501 8.73153 31.3484 8.94744 31.5842 9.23438C31.82 9.51847 31.9805 9.8679 32.0657 10.2827C32.1509 10.6974 32.1481 11.1733 32.0572 11.7102L31.9762 12.2301H26.2915L26.4833 11.0199H30.2333C30.2674 10.7983 30.2489 10.6009 30.1779 10.4276C30.1069 10.2543 29.9918 10.1193 29.8327 10.0227C29.6765 9.9233 29.4847 9.87358 29.2575 9.87358C29.0273 9.87358 28.8114 9.92756 28.6097 10.0355C28.4109 10.1406 28.2418 10.2827 28.1026 10.4616C27.9634 10.6406 27.8725 10.8423 27.8299 11.0668L27.604 12.3068C27.5586 12.5824 27.5714 12.8182 27.6424 13.0142C27.7134 13.2102 27.8356 13.3608 28.0089 13.4659C28.1822 13.5682 28.4052 13.6193 28.6779 13.6193C28.8597 13.6193 29.0302 13.5952 29.1893 13.5469C29.3484 13.4957 29.4904 13.4205 29.6154 13.321C29.7433 13.2187 29.8469 13.0952 29.9265 12.9503L31.8271 13.0057C31.6737 13.4347 31.4364 13.8082 31.1154 14.1264C30.7944 14.4418 30.4023 14.6875 29.9393 14.8636C29.479 15.0369 28.962 15.1236 28.3881 15.1236ZM34.0249 6.27273H36.6371L37.9581 11.6761H38.0604L41.1712 6.27273H43.7834L42.3345 15H40.2805L41.1712 9.6392H41.0987L38.1243 14.9446H36.8161L35.6058 9.60938H35.5334L34.63 15H32.576L34.0249 6.27273ZM45.4783 15.1108C45.0636 15.1108 44.7056 15.0412 44.4045 14.902C44.1062 14.7599 43.8874 14.5455 43.7482 14.2585C43.6119 13.9716 43.5792 13.6136 43.6502 13.1847C43.7127 12.821 43.8278 12.5156 43.9954 12.2685C44.1658 12.0185 44.3746 11.8153 44.6218 11.6591C44.8718 11.5028 45.1502 11.3835 45.457 11.3011C45.7638 11.2187 46.0849 11.1634 46.4201 11.1349C46.7951 11.1009 47.0991 11.0639 47.332 11.0241C47.5678 10.9844 47.744 10.929 47.8604 10.858C47.9769 10.7841 48.0479 10.6818 48.0735 10.5511V10.5298C48.1076 10.3111 48.0607 10.142 47.9329 10.0227C47.805 9.90341 47.6133 9.84375 47.3576 9.84375C47.0849 9.84375 46.8519 9.90341 46.6587 10.0227C46.4656 10.142 46.3306 10.3068 46.2539 10.517L44.3448 10.4489C44.4641 10.0511 44.6687 9.69602 44.9585 9.38352C45.2482 9.06818 45.6161 8.82102 46.0621 8.64205C46.511 8.46023 47.0295 8.36932 47.6175 8.36932C48.0323 8.36932 48.4073 8.41903 48.7425 8.51847C49.0778 8.61506 49.3604 8.7571 49.5906 8.9446C49.8235 9.12926 49.9897 9.35653 50.0891 9.62642C50.1886 9.89631 50.2099 10.2045 50.1531 10.5511L49.4073 15H47.4471L47.6005 14.0881H47.5494C47.396 14.3097 47.2156 14.4972 47.0082 14.6506C46.8036 14.804 46.5735 14.919 46.3178 14.9957C46.0621 15.0724 45.7823 15.1108 45.4783 15.1108ZM46.3562 13.7472C46.5749 13.7472 46.7823 13.7017 46.9783 13.6108C47.1744 13.5199 47.3391 13.3949 47.4727 13.2358C47.609 13.0739 47.6957 12.8864 47.7326 12.6733L47.8306 12.0511C47.771 12.0824 47.6957 12.1108 47.6048 12.1364C47.5138 12.1619 47.4173 12.1861 47.315 12.2088C47.2127 12.2287 47.1076 12.2486 46.9996 12.2685C46.8945 12.2855 46.7937 12.3011 46.6971 12.3153C46.4925 12.3466 46.315 12.3949 46.1644 12.4602C46.0138 12.5256 45.8931 12.6108 45.8022 12.7159C45.7141 12.8182 45.6602 12.9403 45.6403 13.0824C45.6062 13.2955 45.6559 13.4602 45.7894 13.5767C45.9229 13.6903 46.1119 13.7472 46.3562 13.7472ZM55.467 8.45455L55.207 9.98864H51.0778L51.3377 8.45455H55.467ZM52.4585 6.88636H54.5423L53.5366 12.9418C53.5167 13.0696 53.5195 13.1733 53.5451 13.2528C53.5735 13.3295 53.6246 13.3849 53.6985 13.419C53.7752 13.4503 53.869 13.4659 53.9798 13.4659C54.0565 13.4659 54.1417 13.4574 54.2354 13.4403C54.3292 13.4233 54.4002 13.4105 54.4485 13.402L54.5167 14.9062C54.4059 14.9375 54.2567 14.973 54.0692 15.0128C53.8846 15.0554 53.6687 15.0824 53.4215 15.0938C52.9215 15.1136 52.5082 15.0554 52.1815 14.919C51.8576 14.7798 51.6289 14.5639 51.4954 14.2713C51.3647 13.9787 51.3391 13.6122 51.4187 13.1719L52.4585 6.88636ZM58.4116 15.1236C57.7269 15.1236 57.1587 14.9886 56.707 14.7188C56.2582 14.446 55.9428 14.0582 55.761 13.5554C55.5792 13.0497 55.5465 12.4489 55.663 11.7528C55.7766 11.0767 56.0082 10.4858 56.3576 9.98011C56.7099 9.47159 57.1531 9.0767 57.6871 8.79545C58.2212 8.51136 58.8164 8.36932 59.4727 8.36932C59.9386 8.36932 60.3519 8.44176 60.7127 8.58665C61.0735 8.73153 61.3718 8.94744 61.6076 9.23438C61.8434 9.51847 62.0039 9.8679 62.0891 10.2827C62.1744 10.6974 62.1715 11.1733 62.0806 11.7102L61.9996 12.2301H56.315L56.5067 11.0199H60.2567C60.2908 10.7983 60.2724 10.6009 60.2013 10.4276C60.1303 10.2543 60.0153 10.1193 59.8562 10.0227C59.6999 9.9233 59.5082 9.87358 59.2809 9.87358C59.0508 9.87358 58.8349 9.92756 58.6332 10.0355C58.4343 10.1406 58.2653 10.2827 58.1261 10.4616C57.9869 10.6406 57.896 10.8423 57.8533 11.0668L57.6275 12.3068C57.582 12.5824 57.5948 12.8182 57.6658 13.0142C57.7369 13.2102 57.859 13.3608 58.0323 13.4659C58.2056 13.5682 58.4286 13.6193 58.7013 13.6193C58.8832 13.6193 59.0536 13.5952 59.2127 13.5469C59.3718 13.4957 59.5138 13.4205 59.6388 13.321C59.7667 13.2187 59.8704 13.0952 59.9499 12.9503L61.8505 13.0057C61.6971 13.4347 61.4599 13.8082 61.1388 14.1264C60.8178 14.4418 60.4258 14.6875 59.9627 14.8636C59.5025 15.0369 58.9854 15.1236 58.4116 15.1236Z" fill="#3C2481"/>
<path d="M95.2695 8.01953L92.9844 5.73438C92.5156 5.26562 91.8789 5.00391 91.2148 5.00391H89.75V1.25C89.75 0.558594 89.1914 0 88.5 0H72.25C71.5586 0 71 0.558594 71 1.25V14.375C71 16.1016 72.3984 17.5 74.125 17.5C75.1523 17.5 76.0547 16.9961 76.625 16.2344C77.1953 17 78.0977 17.5 79.125 17.5C80.8516 17.5 82.25 16.1016 82.25 14.375C82.25 14.1602 82.2266 13.9531 82.1875 13.75H88.5625C88.5195 13.9531 88.5 14.1602 88.5 14.375C88.5 16.1016 89.8984 17.5 91.625 17.5C93.3516 17.5 94.75 16.1016 94.75 14.375C94.75 14.1602 94.7266 13.9531 94.6875 13.75H95.375C95.7188 13.75 96 13.4688 96 13.125V9.78516C96 9.12109 95.7383 8.48828 95.2695 8.01953ZM74.125 15.625C73.4375 15.625 72.875 15.0625 72.875 14.375C72.875 13.6875 73.4375 13.125 74.125 13.125C74.8125 13.125 75.375 13.6875 75.375 14.375C75.375 15.0625 74.8125 15.625 74.125 15.625ZM79.125 15.625C78.4375 15.625 77.875 15.0625 77.875 14.375C77.875 13.6875 78.4375 13.125 79.125 13.125C79.8125 13.125 80.375 13.6875 80.375 14.375C80.375 15.0625 79.8125 15.625 79.125 15.625ZM89.75 6.875H91.2148C91.3828 6.875 91.5391 6.94141 91.6562 7.05859L93.3477 8.75H89.75V6.875ZM91.625 15.625C90.9375 15.625 90.375 15.0625 90.375 14.375C90.375 13.6875 90.9375 13.125 91.625 13.125C92.3125 13.125 92.875 13.6875 92.875 14.375C92.875 15.0625 92.3125 15.625 91.625 15.625Z" fill="#FFA903"/>
</svg>
