<svg width="25" height="25" viewBox="0 0 25 25" fill="none" xmlns="http://www.w3.org/2000/svg">
<path d="M9.01175 12.7883C9.16956 13.4717 8.41981 13.9911 7.83656 13.6265L5.84749 12.3836L3.36375 16.3583C2.71512 17.3962 3.46483 18.75 4.68807 18.75H7.22655C7.55013 18.75 7.81248 19.0124 7.81248 19.336V21.2891C7.81248 21.6127 7.55013 21.875 7.22655 21.875H4.6931C1.01468 21.875 -1.22985 17.8199 0.7181 14.7032L3.19964 10.7291L1.21112 9.48655C0.621225 9.11804 0.773324 8.21892 1.44935 8.06282L6.83202 6.82014C7.25247 6.72307 7.67191 6.98523 7.76898 7.40559L9.01175 12.7883ZM13.8243 3.85686L15.8404 7.08323L13.8511 8.32625C13.2627 8.69382 13.4117 9.59348 14.0893 9.74998L19.472 10.9927C19.8954 11.0903 20.3126 10.8248 20.409 10.4072L21.6516 5.02454C21.8077 4.34856 21.0662 3.81755 20.4764 4.18626L18.4898 5.42766L16.475 2.201C14.6429 -0.730297 10.3613 -0.737035 8.52498 2.201L7.64788 3.60559C7.4765 3.88001 7.55999 4.24138 7.83441 4.41287L9.49061 5.44778C9.76502 5.61926 10.1265 5.53582 10.298 5.2614L11.175 3.85794C11.7957 2.86472 13.2245 2.89719 13.8243 3.85686ZM24.2816 14.7032L22.9381 12.5515C22.7667 12.277 22.4051 12.1934 22.1306 12.365L20.4772 13.3981C20.2028 13.5696 20.1193 13.9311 20.2908 14.2055L21.6367 16.3594C22.284 17.3951 21.5363 18.7501 20.3117 18.7501H15.625V16.4073C15.625 15.7133 14.7831 15.3632 14.2913 15.8549L10.3851 19.7602C10.08 20.0653 10.08 20.5599 10.3851 20.865L14.2913 24.7707C14.7797 25.2592 15.625 24.917 15.625 24.2182V21.875H20.3066C23.9821 21.875 26.2312 17.8224 24.2816 14.7032Z" fill="#6ED16C"/>
</svg>
