<svg width="25" height="25" viewBox="0 0 25 25" fill="none" xmlns="http://www.w3.org/2000/svg">
<path d="M24.916 21.77L21.3501 7.50586C21.1645 6.76416 20.5473 6.25 19.8427 6.25H16.9008C17.0752 5.75928 17.1879 5.23828 17.1879 4.6875C17.1879 2.09863 15.0893 0 12.5004 0C9.91158 0 7.81295 2.09863 7.81295 4.6875C7.81295 5.23828 7.92525 5.75928 8.10006 6.25H5.15816C4.45357 6.25 3.8359 6.76465 3.65084 7.50586L0.0839435 21.77C-0.322795 23.3965 0.799764 24.9995 2.34517 24.9995H22.6552C24.2002 24.9995 25.3227 23.3965 24.916 21.77ZM12.5 6.24951C11.6386 6.24951 10.9375 5.54834 10.9375 4.68701C10.9375 3.82568 11.6386 3.12451 12.5 3.12451C13.3613 3.12451 14.0625 3.82568 14.0625 4.68701C14.0625 5.54834 13.3613 6.24951 12.5 6.24951Z" fill="#9E9E9E"/>
</svg>
