<svg width="100" height="100" viewBox="0 0 100 100" fill="none" xmlns="http://www.w3.org/2000/svg">
<circle cx="50" cy="50" r="50" fill="#FFCDCD"/>
<path d="M59.2546 50.0026C57.8551 50.0026 56.5385 49.2393 55.8263 48.0179L50.5018 38.9761L45.1856 48.0179C44.4652 49.2477 43.1485 50.0111 41.7491 50.0111C41.3765 50.0111 41.0038 49.9602 40.6478 49.85L29.3032 46.525V61.6229C29.3032 62.8697 30.1312 63.9554 31.3071 64.2522L49.21 68.841C50.0547 69.053 50.9407 69.053 51.7771 68.841L69.6966 64.2522C70.8724 63.9469 71.7005 62.8612 71.7005 61.6229V46.525L60.3559 49.8415C59.9998 49.9517 59.6272 50.0026 59.2546 50.0026ZM76.8594 40.4859L72.5948 31.7665C72.3381 31.2406 71.7833 30.9353 71.2119 31.0116L50.5018 33.7173L58.0953 46.6183C58.4099 47.1527 59.0393 47.4072 59.6272 47.2375L76.0148 42.4452C76.8345 42.1993 77.232 41.2663 76.8594 40.4859ZM28.4089 31.7665L24.1443 40.4859C23.7634 41.2663 24.1691 42.1993 24.9806 42.4368L41.3682 47.229C41.9561 47.3987 42.5855 47.1442 42.9001 46.6099L50.5018 33.7173L29.7835 31.0116C29.2121 30.9438 28.6656 31.2406 28.4089 31.7665Z" fill="#C59971"/>
</svg>
