<svg width="100" height="100" viewBox="0 0 100 100" fill="none" xmlns="http://www.w3.org/2000/svg">
<circle cx="50" cy="50" r="50" fill="#FF8C4C"/>
<path d="M71.3571 40.5714H28.6429C28.2071 40.5714 27.7893 40.737 27.4812 41.0317C27.1731 41.3264 27 41.7261 27 42.1429V45.2857C27 45.7025 27.1731 46.1022 27.4812 46.3969C27.7893 46.6916 28.2071 46.8571 28.6429 46.8571H71.3571C71.7929 46.8571 72.2107 46.6916 72.5188 46.3969C72.8269 46.1022 73 45.7025 73 45.2857V42.1429C73 41.7261 72.8269 41.3264 72.5188 41.0317C72.2107 40.737 71.7929 40.5714 71.3571 40.5714ZM71.3571 65.7143H28.6429C28.2071 65.7143 27.7893 65.8798 27.4812 66.1745C27.1731 66.4692 27 66.8689 27 67.2857V70.4286C27 70.8453 27.1731 71.245 27.4812 71.5397C27.7893 71.8344 28.2071 72 28.6429 72H71.3571C71.7929 72 72.2107 71.8344 72.5188 71.5397C72.8269 71.245 73 70.8453 73 70.4286V67.2857C73 66.8689 72.8269 66.4692 72.5188 66.1745C72.2107 65.8798 71.7929 65.7143 71.3571 65.7143ZM38.0996 34.2857H61.9015C62.0646 34.2857 62.2261 34.255 62.3768 34.1952C62.5274 34.1355 62.6643 34.0479 62.7796 33.9376C62.8949 33.8272 62.9863 33.6962 63.0487 33.552C63.111 33.4078 63.143 33.2533 63.1429 33.0973V29.1874C63.1429 29.0315 63.1107 28.8771 63.0484 28.733C62.986 28.5889 62.8945 28.458 62.7793 28.3478C62.664 28.2375 62.5271 28.1501 62.3765 28.0904C62.2259 28.0307 62.0645 28 61.9015 28H38.0996C37.9364 27.9999 37.7749 28.0305 37.6242 28.0901C37.4735 28.1497 37.3365 28.2372 37.2211 28.3474C37.1057 28.4577 37.0142 28.5887 36.9517 28.7328C36.8893 28.8769 36.8571 29.0314 36.8571 29.1874V33.0973C36.8571 33.4125 36.988 33.7148 37.221 33.9376C37.454 34.1605 37.77 34.2857 38.0996 34.2857ZM61.9015 59.4286C62.0646 59.4286 62.2261 59.3978 62.3768 59.3381C62.5274 59.2784 62.6643 59.1908 62.7796 59.0804C62.8949 58.9701 62.9863 58.8391 63.0487 58.6949C63.111 58.5507 63.143 58.3962 63.1429 58.2402V54.3303C63.1429 54.0153 63.0121 53.7133 62.7793 53.4906C62.5465 53.268 62.2307 53.1429 61.9015 53.1429H38.0996C37.9364 53.1427 37.7749 53.1733 37.6242 53.233C37.4735 53.2926 37.3365 53.38 37.2211 53.4903C37.1057 53.6006 37.0142 53.7315 36.9517 53.8756C36.8893 54.0198 36.8571 54.1743 36.8571 54.3303V58.2402C36.8571 58.3962 36.8893 58.5508 36.9517 58.695C37.0142 58.8391 37.1057 58.9701 37.221 59.0805C37.3364 59.1909 37.4734 59.2784 37.6241 59.3381C37.7748 59.3978 37.9364 59.4286 38.0996 59.4286H61.9015Z" fill="white"/>
</svg>
